<svg xmlns="http://www.w3.org/2000/svg" xmlns:xlink="http://www.w3.org/1999/xlink" preserveAspectRatio="xMidYMid" width="16" height="28" viewBox="0 0 16 28">
  <defs>
    <style>

      .cls-2 {
        fill: #86939e;
      }
    </style>
  </defs>
  <path d="M15.259,15.059 C15.903,14.424 15.903,13.393 15.259,12.758 C15.259,12.758 2.568,0.221 2.568,0.221 C2.246,-0.096 1.724,-0.096 1.403,0.221 C1.403,0.221 0.237,1.372 0.237,1.372 C-0.084,1.690 -0.084,2.205 0.237,2.523 C0.237,2.523 11.182,13.333 11.182,13.333 C11.503,13.650 11.503,14.166 11.182,14.483 C11.182,14.483 0.237,25.294 0.237,25.294 C-0.084,25.612 -0.084,26.127 0.237,26.445 C0.237,26.445 1.403,27.596 1.403,27.596 C1.724,27.914 2.246,27.914 2.568,27.596 C2.568,27.596 15.259,15.059 15.259,15.059 Z" id="path-1" class="cls-2" fill-rule="evenodd"/>
</svg>
