<svg xmlns="http://www.w3.org/2000/svg" xmlns:xlink="http://www.w3.org/1999/xlink" preserveAspectRatio="xMidYMid" width="16" height="11" viewBox="0 0 16 11">
  <defs>
    <style>

      .cls-2 {
        fill: #86d35d;
      }
    </style>
  </defs>
  <path d="M15.772,0.753 C15.772,0.753 15.109,0.113 15.109,0.113 C14.926,-0.065 14.629,-0.065 14.446,0.113 C14.446,0.113 5.894,8.372 5.894,8.372 C5.711,8.549 5.414,8.549 5.231,8.372 C5.231,8.372 1.454,4.725 1.454,4.725 C1.271,4.548 0.974,4.548 0.792,4.725 C0.792,4.725 0.128,5.365 0.128,5.365 C-0.055,5.542 -0.055,5.829 0.128,6.006 C0.128,6.006 4.888,10.602 4.888,10.602 C5.253,10.955 5.847,10.956 6.213,10.603 C6.213,10.603 15.772,1.394 15.772,1.394 C15.955,1.217 15.955,0.929 15.772,0.753 " id="path-1" class="cls-2" fill-rule="evenodd"/>
</svg>
