<svg xmlns="http://www.w3.org/2000/svg" xmlns:xlink="http://www.w3.org/1999/xlink" preserveAspectRatio="xMidYMid" width="6" height="11" viewBox="0 0 6 11">
  <defs>
    <style>

      .cls-2 {
        fill: #358ed7;
      }
    </style>
  </defs>
  <path d="M6.000,5.498 C6.000,5.335 5.939,5.170 5.816,5.045 C5.816,5.045 0.980,0.103 0.980,0.103 C0.857,-0.022 0.658,-0.022 0.536,0.103 C0.536,0.103 0.092,0.557 0.092,0.557 C0.031,0.620 -0.000,0.702 -0.000,0.784 C-0.000,0.866 0.031,0.948 0.092,1.010 C0.092,1.010 4.262,5.271 4.262,5.271 C4.324,5.334 4.354,5.416 4.354,5.498 C4.354,5.580 4.324,5.663 4.262,5.725 C4.262,5.725 0.092,9.986 0.092,9.986 C0.031,10.049 -0.000,10.131 -0.000,10.213 C-0.000,10.295 0.031,10.377 0.092,10.440 C0.092,10.440 0.536,10.893 0.536,10.893 C0.658,11.019 0.857,11.019 0.980,10.893 C0.980,10.893 5.816,5.952 5.816,5.952 C5.939,5.827 6.000,5.663 6.000,5.498 " id="path-1" class="cls-2" fill-rule="evenodd"/>
</svg>
